<svg xmlns="http://www.w3.org/2000/svg" version="1.1" xmlns:xlink="http://www.w3.org/1999/xlink" xmlns:svgjs="http://svgjs.dev/svgjs" width="1000" height="695" viewBox="0 0 1000 695"><g transform="matrix(1,0,0,1,0.4929577464788508,0.28137651821862164)"><svg viewBox="0 0 355 247" data-background-color="#ffffff" preserveAspectRatio="xMidYMid meet" height="695" width="1000" xmlns="http://www.w3.org/2000/svg" xmlns:xlink="http://www.w3.org/1999/xlink"><g id="tight-bounds" transform="matrix(1,0,0,1,-0.17499999999998295,-0.09999999999999432)"><svg viewBox="0 0 355.34999999999997 247.2" height="247.2" width="355.34999999999997"><g><svg viewBox="0 0 355.34999999999997 247.2" height="247.2" width="355.34999999999997"><g><svg viewBox="0 0 355.34999999999997 247.2" height="247.2" width="355.34999999999997"><g><svg viewBox="0 0 355.34999999999997 247.2" height="247.2" width="355.34999999999997"><g><svg viewBox="0 0 355.34999999999997 247.2" height="247.2" width="355.34999999999997"><g transform="matrix(1,0,0,1,0,0)"><svg width="355.34999999999997" viewBox="2.9 -35.5 51.75 36" height="247.2" data-palette-color="#64ffda"><path d="M12.65 0.5L12.65 0.5Q9.6 0.5 7.13-1.05 4.65-2.6 3.25-5.2L3.25-5.2Q2.9-5.8 2.9-6.35L2.9-6.35Q2.9-7.2 3.55-7.73 4.2-8.25 4.85-8.25L4.85-8.25Q5.4-8.25 5.88-7.95 6.35-7.65 6.7-7.2L6.7-7.2Q7.7-5.5 9.2-4.5 10.7-3.5 12.65-3.5L12.65-3.5Q14.7-3.5 16.28-4.4 17.85-5.3 18.78-6.88 19.7-8.45 19.7-10.45L19.7-10.45 19.7-33Q19.7-33.85 20.33-34.43 20.95-35 21.85-35L21.85-35Q22.75-35 23.33-34.43 23.9-33.85 23.9-33L23.9-33 23.9-10.45Q23.9-7.4 22.43-4.9 20.95-2.4 18.43-0.95 15.9 0.5 12.65 0.5ZM42.85 0.5L42.85 0.5Q39.15 0.5 36.35-0.6 33.55-1.7 30.95-4.1L30.95-4.1Q30.6-4.45 30.37-4.88 30.15-5.3 30.15-5.8L30.15-5.8Q30.15-6.6 30.72-7.23 31.3-7.85 32.15-7.85L32.15-7.85Q32.85-7.85 33.4-7.3L33.4-7.3Q35.35-5.4 37.62-4.4 39.9-3.4 42.75-3.4L42.75-3.4Q44.95-3.4 46.72-4.1 48.5-4.8 49.55-6.05 50.6-7.3 50.6-8.95L50.6-8.95Q50.55-10.95 49.42-12.25 48.3-13.55 46.32-14.43 44.35-15.3 41.75-15.9L41.75-15.9Q39.45-16.45 37.52-17.25 35.6-18.05 34.2-19.23 32.8-20.4 32.02-22.08 31.25-23.75 31.25-26L31.25-26Q31.25-28.85 32.75-31 34.25-33.15 36.9-34.33 39.55-35.5 43-35.5L43-35.5Q46.05-35.5 48.77-34.5 51.5-33.5 53.15-31.75L53.15-31.75Q54.15-30.8 54.15-29.9L54.15-29.9Q54.15-29.15 53.52-28.53 52.9-27.9 52.1-27.9L52.1-27.9Q51.55-27.9 51.1-28.3L51.1-28.3Q50.25-29.25 48.95-30 47.65-30.75 46.1-31.2 44.55-31.65 43-31.65L43-31.65Q40.7-31.65 38.95-30.98 37.2-30.3 36.22-29.08 35.25-27.85 35.25-26.15L35.25-26.15Q35.25-24.25 36.35-23.03 37.45-21.8 39.3-21.03 41.15-20.25 43.4-19.65L43.4-19.65Q45.85-19.05 47.92-18.28 50-17.5 51.5-16.35 53-15.2 53.82-13.43 54.65-11.65 54.65-9.05L54.65-9.05Q54.65-6.3 53.1-4.15 51.55-2 48.87-0.78 46.2 0.45 42.85 0.5Z" opacity="1" transform="matrix(1,0,0,1,0,0)" fill="#64ffda" class="undefined-text-0" data-fill-palette-color="primary" id="text-0"></path></svg></g></svg></g></svg></g></svg></g><g></g></svg></g><defs></defs></svg><rect width="355.34999999999997" height="247.2" fill="none" stroke="none" visibility="hidden"></rect></g></svg></g></svg>